<svg width="50" height="124" viewBox="0 0 50 124" fill="none" xmlns="http://www.w3.org/2000/svg">
<circle cx="25" cy="25" r="25" fill="#1877F2"/>
<path fill-rule="evenodd" clip-rule="evenodd" d="M26.7375 39.8698V26.7032H31.1566L31.8162 21.5687H26.7375V18.2906C26.7375 16.8012 27.152 15.7947 29.2804 15.7947H32V11.204C31.5296 11.1427 29.9112 11 28.0351 11C24.1188 11 21.4335 13.3939 21.4335 17.7872V21.5687H17V26.7032H21.4335V39.8698H26.7375Z" fill="white"/>
<g clip-path="url(#clip0_5_219)">
<path d="M15.545 114.558C15.6383 115.095 15.6848 115.639 15.684 116.184C15.684 118.618 14.814 120.676 13.3 122.069H13.302C11.978 123.292 10.158 124 8 124C5.87827 124 3.84344 123.157 2.34315 121.657C0.842855 120.157 0 118.122 0 116C0 113.878 0.842855 111.843 2.34315 110.343C3.84344 108.843 5.87827 108 8 108C9.98594 107.977 11.9038 108.723 13.352 110.082L11.068 112.366C10.2424 111.579 9.1405 111.148 8 111.166C5.913 111.166 4.14 112.574 3.508 114.47C3.17291 115.464 3.17291 116.54 3.508 117.533H3.511C4.146 119.426 5.916 120.834 8.003 120.834C9.081 120.834 10.007 120.558 10.725 120.07H10.722C11.1389 119.794 11.4955 119.436 11.7704 119.018C12.0452 118.6 12.2325 118.131 12.321 117.639H8V114.559H15.545V114.558Z" fill="black"/>
</g>
<defs>
<clipPath id="clip0_5_219">
<rect width="16" height="16" fill="white" transform="translate(0 108)"/>
</clipPath>
</defs>
</svg>
